<svg xmlns="http://www.w3.org/2000/svg" width="600" height="420" viewBox="0 0 600 420"><defs><linearGradient id="g" x1="300" y1="20" x2="300" y2="400" gradientUnits="userSpaceOnUse"><stop offset="0" stop-color="gray" stop-opacity=".22"/><stop offset=".55" stop-color="gray" stop-opacity=".12"/><stop offset="1" stop-color="gray" stop-opacity=".08"/></linearGradient></defs><path d="M70 260c-20 12-36 36-30 60 6 26 38 38 64 36 22-2 42-12 64-12 24 0 46 14 70 14 28 0 52-18 80-22 32-4 64 8 96 8 24 0 48-8 64-26 16-18 14-46-2-62-22-22-58-16-86-6-18 6-36 14-54 8-18-6-30-22-46-30-26-12-58-6-82 6-26 12-46 32-72 30-22-2-46-10-66 6Z" fill="#2563eb" opacity=".15"/><rect x="78" y="120" width="270" height="200" rx="10" fill="url(#g)"/><rect x="82" y="124" width="262" height="20" rx="6" fill="#2563eb"/><circle cx="94" cy="134" r="3" fill="#fa595f"/><circle cx="104" cy="134" r="3" fill="#ffc74c"/><circle cx="114" cy="134" r="3" fill="#85d459"/><rect x="82" y="144" width="262" height="172" rx="0" fill="#ffffff"/><rect x="100" y="166" width="180" height="10" rx="3" fill="#2563eb" opacity=".25"/><rect x="100" y="188" width="120" height="6" rx="3" fill="#cbd5e1"/><rect x="100" y="204" width="220" height="6" rx="3" fill="#cbd5e1"/><rect x="100" y="220" width="200" height="6" rx="3" fill="#cbd5e1"/><rect x="100" y="244" width="80" height="32" rx="6" fill="#2563eb" opacity=".85"/><rect x="220" y="244" width="100" height="32" rx="6" fill="none" stroke="#2563eb" stroke-width="1.5"/><rect x="260" y="80" width="240" height="180" rx="10" fill="#ffffff" stroke="#e2e8f0"/><rect x="264" y="84" width="232" height="18" rx="5" fill="#eff6ff"/><circle cx="274" cy="93" r="2.5" fill="#cbd5e1"/><circle cx="282" cy="93" r="2.5" fill="#cbd5e1"/><circle cx="290" cy="93" r="2.5" fill="#cbd5e1"/><rect x="280" y="120" width="150" height="8" rx="3" fill="#1e40af" opacity=".55"/><rect x="280" y="138" width="100" height="5" rx="2" fill="#cbd5e1"/><rect x="280" y="152" width="180" height="5" rx="2" fill="#cbd5e1"/><rect x="280" y="166" width="160" height="5" rx="2" fill="#cbd5e1"/><rect x="280" y="190" width="64" height="22" rx="5" fill="#2563eb"/><rect x="200" y="200" width="220" height="160" rx="10" fill="#ffffff" stroke="#e2e8f0"/><rect x="204" y="204" width="212" height="18" rx="5" fill="#eff6ff"/><rect x="220" y="240" width="120" height="8" rx="3" fill="#1e40af" opacity=".55"/><rect x="220" y="258" width="180" height="5" rx="2" fill="#cbd5e1"/><rect x="220" y="270" width="140" height="5" rx="2" fill="#cbd5e1"/><rect x="220" y="290" width="56" height="22" rx="5" fill="#2563eb"/><rect x="284" y="290" width="56" height="22" rx="5" fill="none" stroke="#2563eb" stroke-width="1.5"/></svg>
